<svg width="58" height="58" viewBox="0 0 58 58" fill="none" xmlns="http://www.w3.org/2000/svg">
<rect width="58" height="58" rx="22" fill="#2F3955"/>
<path d="M28.9997 12.3334C33.528 12.3334 34.093 12.35 35.8697 12.4334C37.6447 12.5167 38.853 12.795 39.9163 13.2084C41.0163 13.6317 41.943 14.205 42.8697 15.13C43.7172 15.9632 44.3729 16.971 44.7913 18.0834C45.203 19.145 45.483 20.355 45.5663 22.13C45.6447 23.9067 45.6663 24.4717 45.6663 29C45.6663 33.5284 45.6497 34.0934 45.5663 35.87C45.483 37.645 45.203 38.8534 44.7913 39.9167C44.3741 41.0297 43.7182 42.0377 42.8697 42.87C42.0363 43.7172 41.0285 44.373 39.9163 44.7917C38.8547 45.2034 37.6447 45.4834 35.8697 45.5667C34.093 45.645 33.528 45.6667 28.9997 45.6667C24.4713 45.6667 23.9063 45.65 22.1297 45.5667C20.3547 45.4834 19.1463 45.2034 18.083 44.7917C16.9702 44.3742 15.9622 43.7183 15.1297 42.87C14.282 42.037 13.6262 41.0292 13.208 39.9167C12.7947 38.855 12.5163 37.645 12.433 35.87C12.3547 34.0934 12.333 33.5284 12.333 29C12.333 24.4717 12.3497 23.9067 12.433 22.13C12.5163 20.3534 12.7947 19.1467 13.208 18.0834C13.6251 16.9703 14.281 15.9622 15.1297 15.13C15.9625 14.2821 16.9704 13.6263 18.083 13.2084C19.1463 12.795 20.353 12.5167 22.1297 12.4334C23.9063 12.355 24.4713 12.3334 28.9997 12.3334ZM28.9997 20.6667C26.7895 20.6667 24.6699 21.5447 23.1071 23.1075C21.5443 24.6703 20.6663 26.7899 20.6663 29C20.6663 31.2102 21.5443 33.3298 23.1071 34.8926C24.6699 36.4554 26.7895 37.3334 28.9997 37.3334C31.2098 37.3334 33.3294 36.4554 34.8922 34.8926C36.455 33.3298 37.333 31.2102 37.333 29C37.333 26.7899 36.455 24.6703 34.8922 23.1075C33.3294 21.5447 31.2098 20.6667 28.9997 20.6667ZM39.833 20.25C39.833 19.6975 39.6135 19.1676 39.2228 18.7769C38.8321 18.3862 38.3022 18.1667 37.7497 18.1667C37.1971 18.1667 36.6672 18.3862 36.2765 18.7769C35.8858 19.1676 35.6663 19.6975 35.6663 20.25C35.6663 20.8026 35.8858 21.3325 36.2765 21.7232C36.6672 22.1139 37.1971 22.3334 37.7497 22.3334C38.3022 22.3334 38.8321 22.1139 39.2228 21.7232C39.6135 21.3325 39.833 20.8026 39.833 20.25ZM28.9997 24C30.3258 24 31.5975 24.5268 32.5352 25.4645C33.4729 26.4022 33.9997 27.674 33.9997 29C33.9997 30.3261 33.4729 31.5979 32.5352 32.5356C31.5975 33.4733 30.3258 34 28.9997 34C27.6736 34 26.4018 33.4733 25.4641 32.5356C24.5265 31.5979 23.9997 30.3261 23.9997 29C23.9997 27.674 24.5265 26.4022 25.4641 25.4645C26.4018 24.5268 27.6736 24 28.9997 24Z" fill="#5D6887"/>
</svg>
