<svg width="58" height="58" viewBox="0 0 58 58" fill="none" xmlns="http://www.w3.org/2000/svg">
<rect width="58" height="58" rx="22" fill="#2F3955"/>
<path d="M21.7496 43.8499C21.6996 43.8499 21.6329 43.8833 21.5829 43.8833C18.3496 42.2833 15.7163 39.6333 14.0996 36.3999C14.0996 36.3499 14.1329 36.2833 14.1329 36.2333C16.1663 36.8333 18.2663 37.2833 20.3496 37.6333C20.7163 39.7333 21.1496 41.8166 21.7496 43.8499Z" fill="#5D6887"/>
<path d="M43.9004 36.4166C42.2504 39.7333 39.5004 42.4166 36.1504 44.0333C36.7837 41.9166 37.3171 39.7833 37.6671 37.6333C39.7671 37.2833 41.8337 36.8333 43.8671 36.2333C43.8504 36.2999 43.9004 36.3666 43.9004 36.4166Z" fill="#5D6887"/>
<path d="M44.0337 21.85C41.9337 21.2167 39.8171 20.7 37.6671 20.3333C37.3171 18.1833 36.8004 16.05 36.1504 13.9667C39.6004 15.6167 42.3837 18.4 44.0337 21.85Z" fill="#5D6887"/>
<path d="M21.7501 14.15C21.1501 16.1833 20.7168 18.25 20.3668 20.35C18.2168 20.6833 16.0835 21.2166 13.9668 21.85C15.5835 18.5 18.2668 15.75 21.5835 14.1C21.6335 14.1 21.7001 14.15 21.7501 14.15Z" fill="#5D6887"/>
<path d="M34.8169 19.9834C30.9503 19.55 27.0503 19.55 23.1836 19.9834C23.6003 17.7 24.1336 15.4167 24.8836 13.2167C24.9169 13.0834 24.9003 12.9834 24.9169 12.85C26.2336 12.5334 27.5836 12.3334 29.0003 12.3334C30.4003 12.3334 31.7669 12.5334 33.0669 12.85C33.0836 12.9834 33.0836 13.0834 33.1169 13.2167C33.8669 15.4334 34.4003 17.7 34.8169 19.9834Z" fill="#5D6887"/>
<path d="M19.983 34.8167C17.683 34.4 15.4163 33.8667 13.2163 33.1167C13.083 33.0834 12.983 33.1 12.8497 33.0833C12.533 31.7667 12.333 30.4167 12.333 29C12.333 27.6 12.533 26.2334 12.8497 24.9334C12.983 24.9167 13.083 24.9167 13.2163 24.8833C15.433 24.15 17.683 23.6 19.983 23.1833C19.5663 27.05 19.5663 30.95 19.983 34.8167Z" fill="#5D6887"/>
<path d="M45.6666 29C45.6666 30.4167 45.4666 31.7667 45.1499 33.0833C45.0166 33.1 44.9166 33.0834 44.7833 33.1167C42.5666 33.85 40.2999 34.4 38.0166 34.8167C38.4499 30.95 38.4499 27.05 38.0166 23.1833C40.2999 23.6 42.5833 24.1333 44.7833 24.8833C44.9166 24.9167 45.0166 24.9334 45.1499 24.9334C45.4666 26.25 45.6666 27.6 45.6666 29Z" fill="#5D6887"/>
<path d="M34.8169 38.0167C34.4003 40.3167 33.8669 42.5834 33.1169 44.7834C33.0836 44.9167 33.0836 45.0167 33.0669 45.1501C31.7669 45.4667 30.4003 45.6667 29.0003 45.6667C27.5836 45.6667 26.2336 45.4667 24.9169 45.1501C24.9003 45.0167 24.9169 44.9167 24.8836 44.7834C24.1503 42.5667 23.6003 40.3167 23.1836 38.0167C25.1169 38.2334 27.0503 38.3834 29.0003 38.3834C30.9503 38.3834 32.9003 38.2334 34.8169 38.0167Z" fill="#5D6887"/>
<path d="M35.2719 35.2723C31.1034 35.7982 26.8959 35.7982 22.7275 35.2723C22.2015 31.1038 22.2015 26.8963 22.7275 22.7278C26.8959 22.2019 31.1034 22.2019 35.2719 22.7278C35.7978 26.8963 35.7978 31.1038 35.2719 35.2723Z" fill="#5D6887"/>
</svg>
