<svg width="26" height="25" viewBox="0 0 26 25" fill="none" xmlns="http://www.w3.org/2000/svg">
<path fill-rule="evenodd" clip-rule="evenodd" d="M5.29049 11.4583C5.29049 8.01146 8.09361 5.20833 11.5405 5.20833C14.9874 5.20833 17.7905 8.01146 17.7905 11.4583C17.7905 14.9052 14.9874 17.7083 11.5405 17.7083C8.09361 17.7083 5.29049 14.9052 5.29049 11.4583ZM21.6519 20.0969L18.1155 16.5594C19.2124 15.149 19.8738 13.3812 19.8738 11.4583C19.8738 6.86354 16.1353 3.125 11.5405 3.125C6.9457 3.125 3.20715 6.86354 3.20715 11.4583C3.20715 16.0531 6.9457 19.7917 11.5405 19.7917C13.4634 19.7917 15.2311 19.1302 16.6415 18.0333L20.179 21.5698C20.3822 21.7729 20.6488 21.875 20.9155 21.875C21.1822 21.875 21.4488 21.7729 21.6519 21.5698C22.0592 21.1625 22.0592 20.5042 21.6519 20.0969Z" fill="#A5B0CE"/>
</svg>
