<svg width="36" height="36" viewBox="0 0 36 36" fill="none" xmlns="http://www.w3.org/2000/svg">
<rect width="36" height="36" rx="18" fill="black"/>
<path d="M20.848 22.16C21.0613 22.16 21.2293 22.2213 21.352 22.344C21.48 22.4613 21.544 22.6187 21.544 22.816V24H13.608V23.344C13.608 23.2107 13.6347 23.072 13.688 22.928C13.7467 22.7787 13.8373 22.6453 13.96 22.528L17.472 19.008C17.7653 18.7093 18.0267 18.424 18.256 18.152C18.4907 17.88 18.6853 17.6107 18.84 17.344C18.9947 17.0773 19.112 16.808 19.192 16.536C19.2773 16.2587 19.32 15.968 19.32 15.664C19.32 15.3867 19.28 15.144 19.2 14.936C19.12 14.7227 19.0053 14.544 18.856 14.4C18.712 14.256 18.536 14.1493 18.328 14.08C18.1253 14.0053 17.896 13.968 17.64 13.968C17.4053 13.968 17.1867 14.0027 16.984 14.072C16.7867 14.136 16.6107 14.2293 16.456 14.352C16.3013 14.4693 16.1707 14.608 16.064 14.768C15.9573 14.928 15.8773 15.104 15.824 15.296C15.7333 15.5413 15.616 15.704 15.472 15.784C15.328 15.864 15.12 15.8827 14.848 15.84L13.808 15.656C13.888 15.1013 14.0427 14.616 14.272 14.2C14.5013 13.7787 14.7867 13.4293 15.128 13.152C15.4747 12.8693 15.8693 12.6587 16.312 12.52C16.76 12.376 17.24 12.304 17.752 12.304C18.2853 12.304 18.7733 12.384 19.216 12.544C19.6587 12.6987 20.0373 12.92 20.352 13.208C20.6667 13.496 20.912 13.8427 21.088 14.248C21.264 14.6533 21.352 15.104 21.352 15.6C21.352 16.0267 21.288 16.4213 21.16 16.784C21.0373 17.1467 20.8693 17.4933 20.656 17.824C20.448 18.1547 20.2027 18.4747 19.92 18.784C19.6373 19.0933 19.3413 19.408 19.032 19.728L16.424 22.392C16.6747 22.3173 16.9227 22.2613 17.168 22.224C17.4187 22.1813 17.656 22.16 17.88 22.16H20.848Z" fill="white"/>
</svg>
