<svg width="30" height="30" viewBox="0 0 30 30" fill="none" xmlns="http://www.w3.org/2000/svg">
<path d="M15.0002 0.833252C18.8492 0.833252 19.3295 0.847419 20.8397 0.918252C22.3484 0.989085 23.3755 1.22567 24.2793 1.577C25.2143 1.93684 26.002 2.42417 26.7897 3.21042C27.51 3.9186 28.0674 4.77525 28.4231 5.72075C28.773 6.62317 29.011 7.65167 29.0818 9.16042C29.1484 10.6706 29.1668 11.1508 29.1668 14.9999C29.1668 18.849 29.1527 19.3293 29.0818 20.8394C29.011 22.3482 28.773 23.3753 28.4231 24.2791C28.0685 25.2251 27.5109 26.082 26.7897 26.7894C26.0813 27.5095 25.2247 28.0669 24.2793 28.4228C23.3769 28.7728 22.3484 29.0108 20.8397 29.0816C19.3295 29.1482 18.8492 29.1666 15.0002 29.1666C11.1511 29.1666 10.6708 29.1524 9.16066 29.0816C7.65191 29.0108 6.62483 28.7728 5.721 28.4228C4.77512 28.0679 3.91833 27.5104 3.21066 26.7894C2.49016 26.0814 1.93273 25.2247 1.57725 24.2791C1.22591 23.3767 0.989329 22.3482 0.918496 20.8394C0.851913 19.3293 0.833496 18.849 0.833496 14.9999C0.833496 11.1508 0.847663 10.6706 0.918496 9.16042C0.989329 7.65025 1.22591 6.62459 1.57725 5.72075C1.93175 4.77467 2.4893 3.91779 3.21066 3.21042C3.91853 2.48966 4.77527 1.9322 5.721 1.577C6.62483 1.22567 7.6505 0.989085 9.16066 0.918252C10.6708 0.851669 11.1511 0.833252 15.0002 0.833252ZM15.0002 7.91659C13.1215 7.91659 11.3199 8.66286 9.99149 9.99125C8.66311 11.3196 7.91683 13.1213 7.91683 14.9999C7.91683 16.8785 8.66311 18.6802 9.99149 20.0086C11.3199 21.337 13.1215 22.0833 15.0002 22.0833C16.8788 22.0833 18.6805 21.337 20.0088 20.0086C21.3372 18.6802 22.0835 16.8785 22.0835 14.9999C22.0835 13.1213 21.3372 11.3196 20.0088 9.99125C18.6805 8.66286 16.8788 7.91659 15.0002 7.91659ZM24.2085 7.56242C24.2085 7.09276 24.0219 6.64235 23.6898 6.31025C23.3577 5.97816 22.9073 5.79159 22.4377 5.79159C21.968 5.79159 21.5176 5.97816 21.1855 6.31025C20.8534 6.64235 20.6668 7.09276 20.6668 7.56242C20.6668 8.03207 20.8534 8.48249 21.1855 8.81459C21.5176 9.14668 21.968 9.33325 22.4377 9.33325C22.9073 9.33325 23.3577 9.14668 23.6898 8.81459C24.0219 8.48249 24.2085 8.03207 24.2085 7.56242ZM15.0002 10.7499C16.1273 10.7499 17.2083 11.1977 18.0054 11.9947C18.8024 12.7917 19.2502 13.8727 19.2502 14.9999C19.2502 16.1271 18.8024 17.2081 18.0054 18.0051C17.2083 18.8022 16.1273 19.2499 15.0002 19.2499C13.873 19.2499 12.792 18.8022 11.995 18.0051C11.1979 17.2081 10.7502 16.1271 10.7502 14.9999C10.7502 13.8727 11.1979 12.7917 11.995 11.9947C12.792 11.1977 13.873 10.7499 15.0002 10.7499Z" fill="#5D6887"/>
</svg>
