<svg width="24" height="28" viewBox="0 0 24 28" fill="none" xmlns="http://www.w3.org/2000/svg">
<path d="M23.8021 27.1667L20.9093 24.6167L19.2787 23.1008L17.5546 21.5L18.2629 23.9919H3.00826C2.27459 23.9893 1.57197 23.6955 1.05477 23.1751C0.537581 22.6548 0.248127 21.9503 0.250009 21.2167V3.02242C0.248879 2.28923 0.538665 1.58555 1.05578 1.06578C1.57289 0.546013 2.27508 0.252626 3.00826 0.25H21.0438C21.777 0.252626 22.4792 0.546013 22.9963 1.06578C23.5134 1.58555 23.8032 2.28923 23.8021 3.02242V27.1667ZM17.3917 15.1363C16.7943 15.9375 15.9343 16.5031 14.9621 16.7343C15.3616 17.2443 15.8433 17.8209 15.8475 17.8266C16.6481 17.8435 17.4409 17.6663 18.1581 17.31C18.8753 16.9538 19.4955 16.4291 19.9658 15.7809C19.9169 13.0534 19.2545 10.3719 18.0278 7.93542C16.9477 7.08792 15.6331 6.59331 14.2623 6.51875H14.2467L14.0583 6.73408C15.2827 7.06297 16.4246 7.64499 17.4101 8.44258C16.1561 7.75324 14.78 7.31443 13.3584 7.15058C12.4549 7.05023 11.5426 7.05927 10.6413 7.1775C10.5775 7.17876 10.514 7.1854 10.4514 7.19733H10.4118C9.35542 7.31896 8.32474 7.60579 7.35743 8.04733C6.87293 8.26975 6.57543 8.43125 6.56268 8.43692C6.54993 8.44258 6.56268 8.43692 6.56268 8.427C7.60818 7.60533 8.81518 7.01033 10.1029 6.68308L9.96126 6.52158H9.95276C8.58198 6.59633 7.26737 7.09092 6.18726 7.93825C4.95604 10.3731 4.29341 13.0556 4.24926 15.7838C4.71339 16.4359 5.33101 16.9637 6.04754 17.3205C6.76408 17.6773 7.55746 17.8521 8.35759 17.8294C8.35759 17.8294 8.86476 17.2118 9.26001 16.7117C8.31226 16.4735 7.47716 15.9124 6.89843 15.125C6.90834 15.1321 7.04859 15.227 7.27526 15.3517C7.28943 15.3701 7.30926 15.3843 7.33051 15.3942C7.34843 15.4066 7.36739 15.4175 7.38718 15.4268C7.72275 15.6164 8.07225 15.7803 8.43268 15.9169C9.07443 16.1719 9.73884 16.366 10.416 16.4978C11.0096 16.6097 11.6117 16.6678 12.2152 16.6678C12.7818 16.6678 13.3457 16.6153 13.9024 16.5119C14.5725 16.3943 15.227 16.2003 15.8532 15.9339C16.394 15.7259 16.91 15.4584 17.3917 15.1363ZM14.5045 14.5314C14.203 14.558 13.9005 14.4928 13.6367 14.3444C13.3729 14.1961 13.16 13.9714 13.0261 13.7C12.8922 13.4286 12.8434 13.123 12.8862 12.8234C12.9289 12.5237 13.0612 12.244 13.2658 12.0209C13.4703 11.7977 13.7374 11.6416 14.0322 11.573C14.327 11.5044 14.6357 11.5264 14.9177 11.6362C15.1998 11.7461 15.442 11.9386 15.6128 12.1885C15.7835 12.4385 15.8747 12.7342 15.8744 13.0368C15.9056 13.8273 15.2936 14.496 14.5031 14.5314H14.5045ZM9.59151 14.5314C9.21759 14.4988 8.86947 14.3273 8.61584 14.0506C8.36222 13.7739 8.22153 13.4122 8.22153 13.0368C8.22153 12.6615 8.36222 12.2998 8.61584 12.0231C8.86947 11.7464 9.21759 11.5748 9.59151 11.5423C9.94851 11.5423 10.2899 11.6896 10.5378 11.946C10.8198 12.2378 10.9728 12.6302 10.9628 13.0354C10.9786 13.4157 10.8429 13.7867 10.5856 14.0671C10.3283 14.3475 9.97031 14.5145 9.59009 14.5314H9.59151Z" fill="#5D6887"/>
</svg>
